<svg width="213" height="58" viewBox="0 0 213 58" fill="none" xmlns="http://www.w3.org/2000/svg">
    <path d="M22.156 39.381v-3.128l-.14-.586v-5.334c0-1.136-.335-2.011-1.005-2.626-.652-.633-1.639-.95-2.96-.95-.876 0-1.732.15-2.57.448-.838.279-1.546.66-2.123 1.145l-1.117-2.011c.764-.615 1.676-1.08 2.737-1.397a11.336 11.336 0 0 1 3.38-.502c2.029 0 3.593.493 4.691 1.48 1.099.987 1.648 2.495 1.648 4.524v8.937h-2.541zm-4.86.168c-1.098 0-2.066-.186-2.904-.559-.82-.372-1.453-.884-1.9-1.536a3.987 3.987 0 0 1-.67-2.262c0-.8.186-1.527.559-2.178.39-.652 1.014-1.173 1.871-1.564.875-.391 2.048-.587 3.519-.587h4.692v1.927h-4.58c-1.34 0-2.244.224-2.71.67a2.163 2.163 0 0 0-.698 1.62c0 .727.289 1.313.866 1.76.577.428 1.378.642 2.402.642 1.005 0 1.88-.223 2.625-.67.764-.447 1.313-1.099 1.648-1.955l.53 1.843c-.353.875-.977 1.573-1.87 2.095-.894.503-2.02.754-3.38.754zm18.954 0c-1.583 0-2.98-.326-4.19-.978a7.166 7.166 0 0 1-2.792-2.68c-.652-1.136-.978-2.44-.978-3.91 0-1.472.317-2.775.95-3.91a6.982 6.982 0 0 1 2.653-2.654c1.136-.652 2.411-.977 3.826-.977 1.434 0 2.7.316 3.798.95 1.099.632 1.955 1.526 2.57 2.68.633 1.136.95 2.467.95 3.994 0 .112-.01.242-.029.391 0 .15-.009.289-.027.419H30.385v-1.927h11.2l-1.09.67c.019-.95-.177-1.796-.587-2.541a4.356 4.356 0 0 0-1.703-1.732c-.708-.428-1.536-.642-2.486-.642-.93 0-1.76.214-2.485.642a4.312 4.312 0 0 0-1.704 1.76c-.41.745-.614 1.6-.614 2.57v.446c0 .987.223 1.871.67 2.653a4.827 4.827 0 0 0 1.927 1.788c.82.428 1.76.642 2.82.642.876 0 1.667-.149 2.375-.447a5.202 5.202 0 0 0 1.899-1.34l1.48 1.731a6.463 6.463 0 0 1-2.514 1.788c-.986.41-2.094.614-3.323.614zm10.51-.168V24.58h2.569v4.022l-.252-1.005a4.547 4.547 0 0 1 2.067-2.346c.968-.54 2.16-.81 3.575-.81v2.597a2.037 2.037 0 0 0-.335-.028h-.28c-1.433 0-2.569.428-3.407 1.285-.838.856-1.256 2.094-1.256 3.714v7.373h-2.682zm17.467.168c-1.49 0-2.812-.326-3.966-.978a7.275 7.275 0 0 1-2.737-2.68c-.67-1.155-1.005-2.458-1.005-3.91 0-1.472.335-2.775 1.005-3.91a7.07 7.07 0 0 1 2.737-2.654c1.154-.652 2.476-.977 3.966-.977 1.47 0 2.783.325 3.938.977a6.827 6.827 0 0 1 2.737 2.653c.67 1.117 1.005 2.42 1.005 3.91 0 1.471-.335 2.775-1.005 3.91a7.018 7.018 0 0 1-2.737 2.681c-1.155.652-2.467.978-3.938.978zm0-2.346c.95 0 1.797-.214 2.541-.642a4.533 4.533 0 0 0 1.788-1.816c.428-.8.642-1.722.642-2.765 0-1.06-.214-1.973-.642-2.737a4.534 4.534 0 0 0-1.788-1.815c-.744-.428-1.592-.642-2.541-.642-.95 0-1.797.214-2.542.642a4.784 4.784 0 0 0-1.787 1.815c-.447.764-.67 1.676-.67 2.737 0 1.043.223 1.965.67 2.765a4.783 4.783 0 0 0 1.787 1.816c.745.428 1.592.642 2.542.642zm17.504 2.346c-1.433 0-2.718-.317-3.854-.95a6.983 6.983 0 0 1-2.653-2.653c-.652-1.136-.977-2.457-.977-3.966 0-1.508.325-2.82.977-3.938a6.982 6.982 0 0 1 2.653-2.653c1.136-.633 2.42-.95 3.854-.95 1.285 0 2.43.28 3.436.838 1.005.56 1.796 1.397 2.373 2.514.596 1.117.894 2.514.894 4.19 0 1.675-.307 3.072-.921 4.189-.596 1.117-1.397 1.964-2.402 2.541-1.006.559-2.132.838-3.38.838zm.224-2.346c.93 0 1.769-.214 2.513-.642a4.534 4.534 0 0 0 1.788-1.816c.447-.8.67-1.722.67-2.765 0-1.06-.223-1.973-.67-2.737a4.534 4.534 0 0 0-1.788-1.815c-.744-.428-1.582-.642-2.513-.642-.95 0-1.797.214-2.542.642a4.785 4.785 0 0 0-1.787 1.815c-.447.764-.67 1.676-.67 2.737 0 1.043.223 1.965.67 2.765a4.784 4.784 0 0 0 1.787 1.816c.745.428 1.592.642 2.542.642zm4.943 7.596v-9.355l.28-3.436-.168-3.435V24.58h2.57V44.8h-2.682zm13.982-5.25c-1.266 0-2.383-.233-3.351-.698-.95-.466-1.695-1.173-2.234-2.123-.522-.968-.782-2.178-.782-3.63v-8.519h2.68v8.211c0 1.453.345 2.542 1.034 3.268.707.726 1.694 1.09 2.96 1.09.931 0 1.741-.187 2.43-.56a3.952 3.952 0 0 0 1.592-1.675c.372-.745.559-1.639.559-2.681v-7.653h2.681v14.802h-2.542v-3.993l.419 1.06a5.179 5.179 0 0 1-2.178 2.291c-.968.54-2.058.81-3.268.81zm20.521 0c-1.266 0-2.411-.28-3.435-.838-1.006-.577-1.807-1.424-2.402-2.541-.577-1.117-.866-2.514-.866-4.19 0-1.675.298-3.072.894-4.189.614-1.117 1.424-1.955 2.429-2.514 1.024-.558 2.151-.837 3.38-.837 1.452 0 2.737.316 3.854.95a6.986 6.986 0 0 1 2.653 2.652c.652 1.118.978 2.43.978 3.938 0 1.509-.326 2.83-.978 3.966a6.987 6.987 0 0 1-2.653 2.653c-1.117.633-2.402.95-3.854.95zm-7.848-.168V18.658h2.681v9.86l-.279 3.434.167 3.436v3.993h-2.569zm7.624-2.178c.95 0 1.797-.214 2.542-.642a4.533 4.533 0 0 0 1.787-1.816c.447-.8.67-1.722.67-2.765 0-1.06-.223-1.973-.67-2.737a4.534 4.534 0 0 0-1.787-1.815c-.745-.428-1.592-.642-2.542-.642-.931 0-1.778.214-2.541.642a4.785 4.785 0 0 0-1.788 1.815c-.428.764-.642 1.676-.642 2.737 0 1.043.214 1.965.642 2.765a4.785 4.785 0 0 0 1.788 1.816c.763.428 1.61.642 2.541.642zm18.004 2.346c-1.583 0-2.979-.326-4.189-.978-1.192-.651-2.123-1.545-2.793-2.68-.652-1.136-.978-2.44-.978-3.91 0-1.472.317-2.775.95-3.91a6.985 6.985 0 0 1 2.653-2.654c1.136-.652 2.411-.977 3.826-.977 1.434 0 2.7.316 3.799.95 1.098.632 1.955 1.526 2.569 2.68.633 1.136.95 2.467.95 3.994 0 .112-.01.242-.028.391 0 .15-.01.289-.028.419h-12.596v-1.927h11.199l-1.089.67c.019-.95-.177-1.796-.586-2.541a4.36 4.36 0 0 0-1.704-1.732c-.708-.428-1.536-.642-2.486-.642-.931 0-1.759.214-2.485.642a4.316 4.316 0 0 0-1.704 1.76c-.409.745-.614 1.6-.614 2.57v.446c0 .987.223 1.871.67 2.653a4.825 4.825 0 0 0 1.927 1.788c.819.428 1.76.642 2.821.642.875 0 1.666-.149 2.374-.447a5.202 5.202 0 0 0 1.899-1.34l1.48 1.731a6.458 6.458 0 0 1-2.514 1.788c-.986.41-2.094.614-3.323.614z" fill="#001F3F"/>
    <path d="M174.804 8.379c-4.568 0-8.284 3.716-8.284 8.284 0 1.543.427 3.05 1.236 4.356l6.576 10.597a.69.69 0 0 0 .587.326h.005a.69.69 0 0 0 .587-.335l6.408-10.7a8.269 8.269 0 0 0 1.169-4.244c0-4.568-3.717-8.284-8.284-8.284zm5.93 11.82-5.826 9.727-5.978-9.635a6.89 6.89 0 0 1-1.039-3.628c0-3.807 3.106-6.913 6.913-6.913 3.806 0 6.908 3.106 6.908 6.913a6.89 6.89 0 0 1-.978 3.535z" fill="#0BB1DC" stroke="#0BB1DC" stroke-width="2.327"/>
    <path d="M155.236 41.848c2.132 4.04 7.152 5.593 11.193 3.462a8.264 8.264 0 0 0 3.275-3.127l6.305-10.76a.69.69 0 0 0 .015-.671l-.003-.005a.69.69 0 0 0-.57-.363l-12.454-.675a8.274 8.274 0 0 0-4.299.947c-4.04 2.131-5.593 7.152-3.462 11.192zm7.687-10.76 11.322.614-5.731 9.783a6.902 6.902 0 0 1-2.725 2.612c-3.367 1.776-7.564.478-9.34-2.889-1.776-3.367-.476-7.56 2.891-9.335a6.898 6.898 0 0 1 3.583-.785z" fill="#0BB1DC" stroke="#0BB1DC" stroke-width="2.327"/>
    <path d="M194.592 41.847c2.131-4.04.578-9.061-3.462-11.192a8.266 8.266 0 0 0-4.43-.939l-12.441.873a.69.69 0 0 0-.562.366l-.003.005a.69.69 0 0 0 .023.676l6.474 10.66a8.273 8.273 0 0 0 3.209 3.013c4.04 2.132 9.061.578 11.192-3.462zm-13.221-.269-5.886-9.691 11.311-.793a6.895 6.895 0 0 1 3.694.774c3.367 1.776 4.665 5.972 2.889 9.34-1.776 3.366-5.97 4.66-9.337 2.884a6.898 6.898 0 0 1-2.671-2.514z" fill="#0BB1DC" stroke="#0BB1DC" stroke-width="2.327"/>
</svg>
