<svg width="904" height="900" viewBox="0 0 904 900" fill="none" xmlns="http://www.w3.org/2000/svg">
    <path fill="url(#8c23bjt14a)" d="M0 0h904v900H0z"/>
    <mask id="njk5d2dgcb" style="mask-type:alpha" maskUnits="userSpaceOnUse" x="0" y="0" width="904" height="900">
        <path fill="#39CE96" d="M0 0h904v900H0z"/>
    </mask>
    <g mask="url(#njk5d2dgcb)">
        <g opacity=".35" fill="#39CE96">
            <path opacity=".35" d="M129.764-293.325h-1.854V980.326h1.854V-293.325zM259.54-293.325h-3.708V980.326h3.708V-293.325zM387.46-293.325h-1.854V980.326h1.854V-293.325zM515.382-293.325h-1.854V980.326h1.854V-293.325zM645.157-293.325h-3.708V980.326h3.708V-293.325zM773.079-293.325h-1.854V980.326h1.854V-293.325z"/>
            <g opacity=".6">
                <path opacity=".6" d="M901 779.062H0v4.227h901v-4.227zM901 582.806H0v4.227h901v-4.227zM901 386.289H0v4.227h901v-4.227zM901 189.772H0v4.227h901v-4.227z"/>
            </g>
        </g>
        <g opacity=".3">
            <path opacity=".3" d="M798.769 975.318h31.715V688.664h-31.715v286.654z" fill="#fff"/>
            <path opacity=".3" d="M703.884 975.333H735.6V635.507h-31.716v339.826z" fill="#6D98D9"/>
            <g opacity=".3" fill="#fff">
                <path opacity=".3" d="M450.675 975.325h31.716V697.402h-31.716v277.923zM418.939 975.322h31.726V654.611h-31.726v320.711z"/>
            </g>
            <g opacity=".3" fill="#fff">
                <path opacity=".3" d="M324.066 975.329h31.715V781.445h-31.715v193.884zM292.338 975.318h31.716V824.816h-31.716v150.502z"/>
            </g>
            <g opacity=".3">
                <path opacity=".3" d="M197.446 975.329h31.727V781.445h-31.727v193.884z" fill="#6D98D9"/>
                <path opacity=".3" d="M165.741 975.333h31.715V758.794h-31.715v216.539z" fill="#fff"/>
            </g>
            <g opacity=".3">
                <path opacity=".3" d="M70.859 975.323h31.715v-85.281H70.859v85.281z" fill="#6D98D9"/>
                <path opacity=".3" d="M39.132 975.331h31.716V842.256H39.132v133.075z" fill="#fff"/>
            </g>
        </g>
    </g>
    <path d="M132.455 613.039s22.334 2.861 35.1 23.129l-2.725 1.859s-17.112-18.772-30.953-22.118c-13.841-3.351-1.422-2.87-1.422-2.87z" fill="#82B378"/>
    <path d="M142.301 557.563s22.59 34.303 9.712 76.062l-5.812-1.562s5.642-45.994-6.177-69.127c-11.819-23.134 2.277-5.373 2.277-5.373z" fill="#82B378"/>
    <path d="m181.523 261.528-78.276 404.665c-1.592 8.234 4.714 15.876 13.096 15.876h41.282l23.898-420.541z" fill="#39CE96"/>
    <path d="M690.097 412.219s-17.081 22.953-9.792 52.501l4.106-.852s-2.088-32.206 7.055-47.821c9.143-15.615-1.369-3.828-1.369-3.828z" fill="#C7DCFB"/>
    <path d="M608.343 328.629s-10.776 36.378 11.797 69.838l4.719-2.936s-17.31-39.146-13.063-62.761c4.251-23.619-3.453-4.141-3.453-4.141z" fill="#DFEBFD"/>
    <path d="m182.464 259.89-51.883 397.319c-1.72 13.174 8.536 24.86 21.823 24.86h76.111l-42.912-423.613-3.139 1.434z" fill="#78ACEA"/>
    <path d="m182.461 259.89-23.226 394.785c-.874 14.86 10.941 27.394 25.827 27.394h113.513L182.461 259.89z" fill="#699DEE"/>
    <path d="m181.59 263.113 11.293 391.562c-.874 14.86 10.94 27.394 25.826 27.394h113.514L181.59 263.113z" fill="#5288D8"/>
    <path d="M725.063 682.069H277.491c-11.174 0-20.754-7.987-22.763-18.98l-68.102-372.441c-3.095-16.908 9.893-32.488 27.085-32.488h442.3c11.174 0 20.754 7.986 22.763 18.979l69.052 377.624c2.6 14.211-8.313 27.306-22.763 27.306z" fill="#D7E9FF"/>
    <path d="M195.486 339.018h494.917l-12.693-70.319a12.81 12.81 0 0 0-12.609-10.538H185.716c-2.618 0-4.596 2.375-4.128 4.953l13.898 75.904z" fill="#39CE96"/>
    <path d="M207.059 237c-11.836 0-21.46 9.62-21.46 21.451h4.123c0-9.558 7.774-17.332 17.337-17.332 9.558 0 17.337 7.774 17.337 17.332 0 1.921-.309 3.766-.892 5.488a17.38 17.38 0 0 1-10.776 10.896 17.016 17.016 0 0 1-4.685.927v4.123a21.214 21.214 0 0 0 5.484-.971 21.539 21.539 0 0 0 14.277-14.975c.464-1.753.711-3.589.711-5.488 0-11.831-9.624-21.451-21.456-21.451z" fill="#78ACEA"/>
    <path d="M213.695 277.673a4.643 4.643 0 0 1-4.645 4.645 4.649 4.649 0 0 1-4.649-4.645 4.651 4.651 0 0 1 4.649-4.648c1.497 0 2.826.715 3.678 1.81.609.786.967 1.77.967 2.838zM283.985 237c-11.831 0-21.456 9.62-21.456 21.451h4.119c0-9.558 7.779-17.332 17.337-17.332 9.563 0 17.337 7.774 17.337 17.332 0 1.921-.313 3.766-.892 5.488a17.388 17.388 0 0 1-10.776 10.896 16.98 16.98 0 0 1-4.684.927v4.123a21.252 21.252 0 0 0 5.483-.971c6.962-2.203 12.401-7.872 14.282-14.975.463-1.753.711-3.589.711-5.488 0-11.831-9.629-21.451-21.461-21.451z" fill="#78ACEA"/>
    <path d="M290.618 277.673c0 .429-.058.848-.164 1.241a4.643 4.643 0 0 1-4.481 3.404 4.647 4.647 0 1 1 3.682-7.483c.605.786.963 1.77.963 2.838zM360.918 237c-11.832 0-21.456 9.62-21.456 21.451h4.115c0-9.558 7.774-17.332 17.341-17.332 9.558 0 17.337 7.774 17.337 17.332 0 1.921-.314 3.766-.896 5.488a17.384 17.384 0 0 1-10.773 10.896 17.037 17.037 0 0 1-4.688.927v4.123a21.244 21.244 0 0 0 5.483-.971 21.538 21.538 0 0 0 14.278-14.975c.463-1.753.71-3.589.71-5.488 0-11.831-9.624-21.451-21.451-21.451z" fill="#78ACEA"/>
    <path d="M367.549 277.673a4.643 4.643 0 0 1-4.644 4.645 4.649 4.649 0 0 1-4.649-4.645 4.651 4.651 0 0 1 4.649-4.648c1.496 0 2.825.715 3.682 1.81a4.64 4.64 0 0 1 .962 2.838zM437.841 237c-11.831 0-21.451 9.62-21.451 21.451h4.119c0-9.558 7.774-17.332 17.332-17.332 9.563 0 17.341 7.774 17.341 17.332 0 1.921-.313 3.766-.891 5.488a17.39 17.39 0 0 1-10.777 10.896c-1.483.516-3.05.839-4.684.927v4.123a21.282 21.282 0 0 0 5.483-.971 21.538 21.538 0 0 0 14.278-14.975c.463-1.753.71-3.589.71-5.488 0-11.831-9.624-21.451-21.46-21.451z" fill="#78ACEA"/>
    <path d="M444.482 277.673a4.648 4.648 0 1 1-4.649-4.648c1.496 0 2.83.715 3.682 1.81.609.786.967 1.77.967 2.838zM514.773 237c-11.831 0-21.456 9.62-21.456 21.451h4.115c0-9.558 7.783-17.332 17.341-17.332s17.337 7.774 17.337 17.332c0 1.921-.313 3.766-.892 5.488a17.394 17.394 0 0 1-10.78 10.896 16.952 16.952 0 0 1-4.68.927v4.123a21.184 21.184 0 0 0 5.479-.971c6.966-2.203 12.405-7.872 14.281-14.975.464-1.753.711-3.589.711-5.488 0-11.831-9.624-21.451-21.456-21.451z" fill="#78ACEA"/>
    <path d="M521.404 277.673a4.64 4.64 0 0 1-4.644 4.645 4.649 4.649 0 0 1-4.649-4.645 4.651 4.651 0 0 1 4.649-4.648 4.645 4.645 0 0 1 4.644 4.648zM591.705 237c-11.836 0-21.46 9.62-21.46 21.451h4.119c0-9.558 7.775-17.332 17.341-17.332 9.558 0 17.333 7.774 17.333 17.332 0 1.921-.314 3.766-.892 5.488a17.388 17.388 0 0 1-10.776 10.896 16.98 16.98 0 0 1-4.684.927v4.123a21.214 21.214 0 0 0 5.483-.971c6.957-2.203 12.396-7.872 14.277-14.975.464-1.753.711-3.589.711-5.488 0-11.831-9.624-21.451-21.452-21.451z" fill="#78ACEA"/>
    <path d="M598.338 277.673a4.648 4.648 0 1 1-4.649-4.648c1.497 0 2.83.715 3.682 1.81.609.786.967 1.77.967 2.838zM668.628 237c-11.831 0-21.451 9.62-21.451 21.451h4.114c0-9.558 7.779-17.332 17.337-17.332s17.342 7.774 17.342 17.332c0 1.921-.314 3.766-.892 5.488a17.387 17.387 0 0 1-10.781 10.896 16.944 16.944 0 0 1-4.68.927v4.123a21.237 21.237 0 0 0 5.483-.971c6.958-2.203 12.397-7.872 14.273-14.975.464-1.753.711-3.589.711-5.488 0-11.831-9.624-21.451-21.456-21.451z" fill="#78ACEA"/>
    <path d="M675.265 277.673c0 .429-.057.848-.163 1.241a4.652 4.652 0 0 1-4.481 3.404 4.647 4.647 0 0 1 0-9.293c1.497 0 2.825.715 3.677 1.81.61.786.967 1.77.967 2.838z" fill="#78ACEA"/>
    <path d="M481.689 471.116h-25.018c-2.892 0-5.713-2.361-6.274-5.258l-4.825-25.018c-.556-2.892 1.351-5.258 4.247-5.258h25.019c2.891 0 5.712 2.366 6.269 5.258l4.83 25.018c.556 2.897-1.356 5.258-4.248 5.258zM544.821 471.116h-25.018c-2.892 0-5.713-2.361-6.269-5.258l-4.83-25.018c-.557-2.892 1.355-5.258 4.247-5.258h25.018c2.892 0 5.713 2.366 6.274 5.258l4.825 25.018c.556 2.897-1.351 5.258-4.247 5.258z" fill="#AFCDFB"/>
    <path d="M607.957 471.116h-25.018c-2.896 0-5.717-2.361-6.274-5.258l-4.825-25.018c-.561-2.892 1.351-5.258 4.243-5.258h25.018c2.892 0 5.713 2.366 6.274 5.258l4.825 25.018c.556 2.897-1.351 5.258-4.243 5.258z" fill="#78ACEA"/>
    <path d="M292.293 471.116h-25.018c-2.892 0-5.718-2.361-6.274-5.258l-4.825-25.018c-.561-2.892 1.351-5.258 4.242-5.258h25.019c2.892 0 5.717 2.366 6.273 5.258l4.826 25.018c.561 2.897-1.351 5.258-4.243 5.258z" fill="#AFCDFB"/>
    <path d="M264.875 396.008h-10.754c-1.241 0-2.455-1.016-2.693-2.261l-2.075-10.75c-.239-1.245.582-2.26 1.823-2.26h10.75c1.245 0 2.459 1.015 2.698 2.26l2.074 10.75c.239 1.245-.582 2.261-1.823 2.261z" fill="#39CE96"/>
    <path d="M355.426 471.116h-25.019c-2.892 0-5.717-2.361-6.273-5.258l-4.826-25.018c-.556-2.892 1.351-5.258 4.243-5.258h25.019c2.891 0 5.717 2.366 6.273 5.258l4.825 25.018c.561 2.897-1.35 5.258-4.242 5.258zM418.558 471.116h-25.019c-2.892 0-5.713-2.361-6.273-5.258l-4.826-25.018c-.556-2.892 1.351-5.258 4.243-5.258h25.019c2.896 0 5.717 2.366 6.273 5.258l4.825 25.018c.561 2.897-1.351 5.258-4.242 5.258z" fill="#AFCDFB"/>
    <path d="M671.086 471.116h-25.018c-2.892 0-5.718-2.361-6.274-5.258l-4.825-25.018c-.561-2.892 1.351-5.258 4.242-5.258h25.019c2.892 0 5.717 2.366 6.273 5.258l4.826 25.018c.561 2.897-1.351 5.258-4.243 5.258z" fill="#78ACEA"/>
    <path d="M471.207 416.779h-25.019c-2.891 0-5.717-2.366-6.273-5.258l-4.825-25.018c-.557-2.892 1.351-5.258 4.242-5.258h25.019c2.892 0 5.717 2.366 6.273 5.258l4.826 25.018c.56 2.892-1.351 5.258-4.243 5.258zM534.339 416.779H509.32c-2.891 0-5.712-2.366-6.273-5.258l-4.826-25.018c-.556-2.892 1.351-5.258 4.243-5.258h25.019c2.896 0 5.717 2.366 6.273 5.258l4.83 25.018c.556 2.892-1.355 5.258-4.247 5.258z" fill="#AFCDFB"/>
    <path d="M597.471 416.779h-25.019c-2.892 0-5.713-2.366-6.269-5.258l-4.83-25.018c-.556-2.892 1.356-5.258 4.247-5.258h25.019c2.892 0 5.713 2.366 6.273 5.258l4.826 25.018c.556 2.892-1.356 5.258-4.247 5.258zM660.609 416.779H635.59c-2.896 0-5.717-2.366-6.273-5.258l-4.83-25.018c-.556-2.892 1.355-5.258 4.247-5.258h25.019c2.891 0 5.712 2.366 6.273 5.258l4.825 25.018c.557 2.892-1.35 5.258-4.242 5.258z" fill="#78ACEA"/>
    <path d="M492.8 528.712h-25.019c-2.891 0-5.717-2.366-6.273-5.258l-4.825-25.019c-.561-2.891 1.351-5.258 4.242-5.258h25.019c2.892 0 5.717 2.367 6.273 5.258l4.826 25.019c.556 2.892-1.351 5.258-4.243 5.258zM555.933 528.712h-25.019c-2.892 0-5.717-2.366-6.273-5.258l-4.826-25.019c-.56-2.891 1.351-5.258 4.243-5.258h25.019c2.891 0 5.717 2.367 6.273 5.258l4.825 25.019c.561 2.892-1.35 5.258-4.242 5.258z" fill="#AFCDFB"/>
    <path d="M619.064 528.712h-25.018c-2.892 0-5.713-2.366-6.274-5.258l-4.825-25.019c-.556-2.891 1.351-5.258 4.243-5.258h25.018c2.892 0 5.717 2.367 6.274 5.258l4.825 25.019c.561 2.892-1.351 5.258-4.243 5.258z" fill="#78ACEA"/>
    <path d="M303.401 528.712h-25.018c-2.892 0-5.713-2.366-6.274-5.258l-4.825-25.019c-.556-2.891 1.351-5.258 4.247-5.258h25.019c2.891 0 5.712 2.367 6.269 5.258l4.829 25.019c.557 2.892-1.355 5.258-4.247 5.258zM366.533 528.712h-25.019c-2.891 0-5.712-2.366-6.273-5.258l-4.825-25.019c-.557-2.891 1.355-5.258 4.247-5.258h25.018c2.892 0 5.713 2.367 6.274 5.258l4.825 25.019c.556 2.892-1.351 5.258-4.247 5.258zM429.669 528.712h-25.018c-2.896 0-5.718-2.366-6.274-5.258l-4.83-25.019c-.556-2.891 1.356-5.258 4.247-5.258h25.019c2.892 0 5.713 2.367 6.274 5.258l4.825 25.019c.556 2.892-1.351 5.258-4.243 5.258z" fill="#AFCDFB"/>
    <path d="M682.195 528.712h-25.018c-2.892 0-5.713-2.366-6.274-5.258l-4.825-25.019c-.556-2.891 1.351-5.258 4.242-5.258h25.024c2.891 0 5.712 2.367 6.269 5.258l4.829 25.019c.557 2.892-1.355 5.258-4.247 5.258z" fill="#78ACEA"/>
    <path d="M503.91 586.303h-25.018c-2.892 0-5.713-2.366-6.274-5.258l-4.825-25.018c-.557-2.892 1.351-5.258 4.242-5.258h25.023c2.892 0 5.713 2.366 6.269 5.258l4.83 25.018c.556 2.892-1.355 5.258-4.247 5.258zM567.04 586.303h-25.019c-2.891 0-5.712-2.366-6.273-5.258l-4.825-25.018c-.557-2.892 1.351-5.258 4.247-5.258h25.018c2.892 0 5.713 2.366 6.269 5.258l4.83 25.018c.556 2.892-1.355 5.258-4.247 5.258z" fill="#AFCDFB"/>
    <path d="M630.174 586.303h-25.019c-2.892 0-5.713-2.366-6.269-5.258l-4.83-25.018c-.556-2.892 1.356-5.258 4.247-5.258h25.019c2.892 0 5.713 2.366 6.273 5.258l4.826 25.018c.556 2.892-1.351 5.258-4.247 5.258z" fill="#78ACEA"/>
    <path d="M314.515 586.303h-25.019c-2.896 0-5.717-2.366-6.273-5.258l-4.826-25.018c-.56-2.892 1.351-5.258 4.243-5.258h25.019c2.891 0 5.712 2.366 6.273 5.258l4.826 25.018c.556 2.892-1.351 5.258-4.243 5.258z" fill="#AFCDFB"/>
    <path d="M377.646 586.303h-25.019c-2.892 0-5.717-2.366-6.273-5.258l-4.826-25.018c-.56-2.892 1.351-5.258 4.243-5.258h25.019c2.891 0 5.717 2.366 6.273 5.258l4.825 25.018c.561 2.892-1.351 5.258-4.242 5.258z" fill="#39CE96"/>
    <path d="M440.778 586.303H415.76c-2.892 0-5.717-2.366-6.274-5.258l-4.825-25.018c-.556-2.892 1.351-5.258 4.243-5.258h25.018c2.892 0 5.717 2.366 6.274 5.258l4.825 25.018c.561 2.892-1.351 5.258-4.243 5.258z" fill="#AFCDFB"/>
    <path d="M693.309 586.303H668.29c-2.891 0-5.717-2.366-6.273-5.258l-4.826-25.018c-.56-2.892 1.351-5.258 4.243-5.258h25.019c2.891 0 5.717 2.366 6.273 5.258l4.825 25.018c.557 2.892-1.35 5.258-4.242 5.258z" fill="#78ACEA"/>
    <path d="M514.39 640.645h-25.019c-2.892 0-5.713-2.366-6.274-5.258l-4.825-25.019c-.556-2.896 1.355-5.262 4.247-5.262h25.019c2.891 0 5.713 2.366 6.273 5.262l4.826 25.019c.556 2.892-1.351 5.258-4.247 5.258zM577.525 640.645h-25.019c-2.896 0-5.717-2.366-6.273-5.258l-4.83-25.019c-.556-2.896 1.355-5.262 4.247-5.262h25.019c2.891 0 5.712 2.366 6.273 5.262l4.825 25.019c.557 2.892-1.351 5.258-4.242 5.258z" fill="#AFCDFB"/>
    <path d="M640.657 640.645h-25.018c-2.892 0-5.717-2.366-6.274-5.258l-4.825-25.019c-.561-2.896 1.351-5.262 4.243-5.262h25.018c2.892 0 5.717 2.366 6.274 5.262l4.825 25.019c.556 2.892-1.351 5.258-4.243 5.258z" fill="#78ACEA"/>
    <path d="M324.994 640.645h-25.018c-2.892 0-5.717-2.366-6.274-5.258l-4.825-25.019c-.561-2.896 1.351-5.262 4.243-5.262h25.018c2.892 0 5.717 2.366 6.274 5.262l4.825 25.019c.561 2.892-1.351 5.258-4.243 5.258zM388.126 640.645h-25.019c-2.891 0-5.717-2.366-6.273-5.258l-4.825-25.019c-.557-2.896 1.351-5.262 4.242-5.262h25.019c2.896 0 5.717 2.366 6.273 5.262l4.826 25.019c.56 2.892-1.351 5.258-4.243 5.258zM451.259 640.645H426.24c-2.892 0-5.713-2.366-6.273-5.258l-4.826-25.019c-.556-2.896 1.351-5.262 4.247-5.262h25.019c2.892 0 5.713 2.366 6.269 5.262l4.83 25.019c.556 2.892-1.355 5.258-4.247 5.258zM340.703 386.132h-66.279c-.98 0-1.779-.799-1.779-1.775 0-.976.799-1.775 1.779-1.775h66.279a1.78 1.78 0 0 1 1.775 1.775 1.78 1.78 0 0 1-1.775 1.775zM342.721 394.162h-66.284a1.781 1.781 0 0 1-1.775-1.779c0-.975.799-1.775 1.775-1.775h66.284c.975 0 1.774.8 1.774 1.775 0 .98-.799 1.779-1.774 1.779z" fill="#AFCDFB"/>
    <path d="M269.616 326.36h-22.745a3.399 3.399 0 0 1-3.387-3.39 3.399 3.399 0 0 1 3.387-3.387h22.745a3.398 3.398 0 0 1 3.386 3.387 3.398 3.398 0 0 1-3.386 3.39zM332.028 326.36h-22.745a3.402 3.402 0 0 1-3.39-3.39 3.402 3.402 0 0 1 3.39-3.387h22.745a3.398 3.398 0 0 1 3.386 3.387 3.398 3.398 0 0 1-3.386 3.39zM394.439 326.36h-22.745a3.402 3.402 0 0 1-3.39-3.39 3.402 3.402 0 0 1 3.39-3.387h22.745a3.398 3.398 0 0 1 3.386 3.387 3.398 3.398 0 0 1-3.386 3.39zM456.848 326.36h-22.745a3.398 3.398 0 0 1-3.386-3.39 3.398 3.398 0 0 1 3.386-3.387h22.745a3.403 3.403 0 0 1 3.391 3.387 3.403 3.403 0 0 1-3.391 3.39zM519.258 326.36h-22.745a3.398 3.398 0 0 1-3.386-3.39 3.398 3.398 0 0 1 3.386-3.387h22.745a3.398 3.398 0 0 1 3.386 3.387 3.398 3.398 0 0 1-3.386 3.39zM581.672 326.36h-22.745a3.403 3.403 0 0 1-3.391-3.39 3.403 3.403 0 0 1 3.391-3.387h22.745a3.398 3.398 0 0 1 3.386 3.387 3.398 3.398 0 0 1-3.386 3.39zM644.084 326.36h-22.745a3.403 3.403 0 0 1-3.391-3.39 3.403 3.403 0 0 1 3.391-3.387h22.745a3.398 3.398 0 0 1 3.386 3.387 3.398 3.398 0 0 1-3.386 3.39z" fill="#fff"/>
    <path d="M500.227 417.274c-5.02 0-8.68-1.594-10.671-4.689-3.823-5.933-.874-14.251 8.768-24.718 7.041-7.646 15.266-13.704 15.346-13.765a.726.726 0 1 1 .861 1.17c-.323.238-32.017 23.703-23.756 36.528 2.618 4.061 8.22 4.33 12.463 3.84 7.853-.909 18.091-5.138 27.389-11.315 9.624-6.392 16.405-13.593 18.599-19.765 1.444-4.044.998-6.909-1.324-8.516-2.998-2.075-9.262-2.079-16.754-.004-7.179 1.982-14.401 5.554-18.851 9.319a.726.726 0 0 1-.941-1.108c4.601-3.894 12.035-7.576 19.403-9.611 8.022-2.22 14.569-2.141 17.969.208 2.013 1.395 3.969 4.295 1.867 10.202-2.3 6.459-9.284 13.925-19.165 20.485-9.478 6.296-19.954 10.613-28.025 11.545a27.86 27.86 0 0 1-3.178.194z" fill="#C65447"/>
    <path d="m631.558 376.031-2.583-4.869s1.28-8.684-9.593-14.172c0 0-3.978-1.62-6.221 1.62-2.066 2.989 3.938 2.451 3.616 7.559-.322 5.108 2.101 8.105 5.479 9.77l2.79 3.231 6.512-3.139z" fill="#FFB27D"/>
    <path d="M734.344 364.384s-9.338 45.844-60.739 60.823c-16.044 4.675-52.497-48.148-52.497-48.148s1.281-4.869 9.311-3.752c0 0 35.491 23.495 39.959 26.051 3.964 2.265 30.038-29.115 41.927-34.179 11.885-5.059 22.039-.795 22.039-.795z" fill="#233862"/>
    <path d="m639.998 353.202 2.057 11.125-55.944 10.358-2.062-11.121 55.949-10.362z" fill="#C65447"/>
    <path d="m572.073 371.532 14.039 3.153-2.061-11.121-11.978 7.968zM647.186 355.687l.649 3.519a3.98 3.98 0 0 1-3.192 4.64l-2.587.481-2.057-11.125 2.812-.521a3.758 3.758 0 0 1 4.375 3.006z" fill="#FFB27D"/>
    <path d="M795.709 652.569s6.375 5.819 5.13 9.956c-1.24 4.136-6.997 6.891-7.774 11.946-.777 5.051-3.89 7.81-6.689 7.81H773.03s-2.061-3.559 2.919-4.631c4.975-1.069 6.851-7.011 6.542-12.521-.313-5.514.464-12.864.464-12.864l10.578-2.451 2.176 2.755zM717.484 667.624s1.143 13.24-1.656 14.617l-35.826-.07s0-4.137 5.752-5.055c5.753-.919 15.863-4.287 17.576-11.792 1.708-7.501 14.154 2.3 14.154 2.3z" fill="#233862"/>
    <path d="M687.233 480.551s1.89 23.213 4.111 51.114c3.019 37.91 6.648 84.469 7.01 93.289.618 15.315 3.113 39.818 3.113 39.818s5.907 5.818 17.725 3.368c0 0 10.538-34.974 13.545-71.979.048-.609.097-1.218.141-1.832 2.799-37.671 7.152-116.996 7.152-116.996l-52.797 3.218z" fill="#F99746"/>
    <path d="M687.233 480.551s1.89 23.213 4.111 51.115l41.393 64.496c.048-.61.097-1.219.141-1.833 2.799-37.671 7.152-116.996 7.152-116.996l-52.797 3.218z" fill="#FF8A2A"/>
    <path d="M695.863 483.306s34.06 84.071 56.452 123.579c22.397 39.512 29.394 50.536 29.394 50.536s12.834-5.055 13.999-8.498c0 0-8.564-76.275-23.561-94.87-8.477-10.503-18.428-42.033-18.896-53.061-.468-11.024-3.033-32.846-3.033-32.846l-54.355 15.16z" fill="#F99746"/>
    <path d="M740.675 353.745s-23.045 11.121-36.329 6.993c0 0 3.271-4.123 8.993-7.196-.459-2.667-.817-4.98-1.02-6.94-.565-4.53-.565-7.095-.565-7.095l8.891-6.993 8.432-6.693c-.662 18.816 11.598 27.924 11.598 27.924z" fill="#FFB27D"/>
    <path d="M685.781 482.467c.406.353.865.552 1.382.552 5.006-.101 19.571 2.662 31.879 1.404 10.423-1.007 19.624-4.022 29.487-8.344 1.328-.605 4.344-2.216 4.291-3.625-.053-1.611-.203-3.871-.406-6.794-.415-5.748-.994-13.911-1.179-23.588-.137-7.174-.062-15.178.459-23.659.031-.57.062-1.143.084-1.717.15-3.108.221-6.239.221-9.298.057-9.863-.658-19.271-2.089-27.672-2.507-14.591-7.209-26.012-14.153-31.093-.923-.707-6.649 2.057-11.96 4.626-4.856 2.367-9.708 2.618-14.304 1.713l-4.6 4.022c-5.576 5.082-11.708 12.075-14.415 22.644-2.242 8.957-3.571 25.155-4.291 41.962-.353 7.647-.609 15.293-.711 22.586v.252c-.057.755-.057 1.514-.057 2.269-.252 18.666 0 33.509.362 33.76z" fill="#2B478B"/>
    <path d="M729.232 333.017s-5.827 10.613-16.913 13.585c-.565-4.53-.565-7.095-.565-7.095l8.891-6.993 8.587.503z" fill="#ED985F"/>
    <path d="M707.7 339.198s21.986 3.598 24.048-9.915c2.066-13.518 6.291-22.154-7.656-25.023-13.95-2.865-17.473 1.885-19.275 6.233-1.801 4.345-2.781 27.425 2.883 28.705z" fill="#FFB27D"/>
    <path d="M739.737 302.643c.199-.229.662-.415 1.686-.472 0 0-.821-.508-1.916-.539-.211-1.421-.971-3.942-3.421-4.556 0 0 1.316.702 1.488 2.216-2.839-2.918-8.923-5.041-25.774-3.708-22.202 1.753-14.887 15.968-12.008 17.664 2.874 1.695 10.11-2.954 15.465-2.526 5.355.424 6.375 8.163 8.189 9.223 1.819 1.064 1.104-.812 3.563-1.925s2.693 2.962 1.982 5.611c-.71 2.649 2.667 6.141 2.667 6.141l3.413-3.677c3.412-3.673 6.631-19.244 5.081-22.564-.137-.292-.274-.592-.415-.888z" fill="#2C3A64"/>
    <path d="M628.925 370.927s.76-2.989-1.315-4.331c-2.071-1.342-3.978-4.993-4.852-4.499-1.81 1.025.989 4.212.477 8.186-.177 1.395 3.063 5.041 5.69.644z" fill="#FFB27D"/>
    <path d="M751.234 442.072c-.137-7.174-.062-15.178.459-23.659.031-.57.062-1.144.084-1.717-2.088-10.353-5.249-19.54-9.902-19.841 0 0-13.863 21.787 9.359 45.217z" fill="#233862"/>
    <path d="M769.57 479.638s-1.157 11.235-2.424 13.359c-1.267 2.123-6.666 8.913-8.962 10.246-2.3 1.334 1.404-8.948.931-10.948-.468-2-1.889 3.651-2.904 3.783-1.011.133-.751-4.953-.786-6.803-.04-1.85 4.927-6.419 6.679-10.357 1.753-3.942 7.466.72 7.466.72z" fill="#FFB27D"/>
    <path d="M735.742 348.518s13.911 6.586 20.582 16.714c10.343 15.708 22.334 72.95 22.555 78.252.22 5.298-8.75 42.722-8.75 42.722s-9.104-.596-11.452-5.192c0 0 1.819-38.452.666-40.925-1.152-2.472-37.941-51.578-33.804-62.058 4.137-10.477 10.203-29.513 10.203-29.513z" fill="#2B478B"/>
    <path d="m579.265 366.747.733 6.565-7.925-1.78 7.192-4.785z" fill="#C65447"/>
    <defs>
        <linearGradient id="8c23bjt14a" x1="451.076" y1="900" x2="451.076" y2="0" gradientUnits="userSpaceOnUse">
            <stop stop-color="#39CE96"/>
            <stop offset="1" stop-color="#E8FFF6"/>
        </linearGradient>
    </defs>
</svg>
